<?xml version="1.0" encoding="UTF-8" standalone="no"?>
<svg
   id="Layer_5"
   data-name="Layer 5"
   viewBox="0 0 957.79 114.7212"
   version="1.1"
   sodipodi:docname="inductor.svg"
   inkscape:version="1.3.2 (091e20e, 2023-11-25, custom)"
   width="957.78998"
   height="114.72121"
   xmlns:inkscape="http://www.inkscape.org/namespaces/inkscape"
   xmlns:sodipodi="http://sodipodi.sourceforge.net/DTD/sodipodi-0.dtd"
   xmlns="http://www.w3.org/2000/svg"
   xmlns:svg="http://www.w3.org/2000/svg">
  <sodipodi:namedview
     id="namedview2"
     pagecolor="#ffffff"
     bordercolor="#000000"
     borderopacity="0.25"
     inkscape:showpageshadow="2"
     inkscape:pageopacity="0.0"
     inkscape:pagecheckerboard="0"
     inkscape:deskcolor="#d1d1d1"
     inkscape:zoom="0.908215"
     inkscape:cx="1164.3719"
     inkscape:cy="317.65606"
     inkscape:window-width="3840"
     inkscape:window-height="2071"
     inkscape:window-x="2151"
     inkscape:window-y="455"
     inkscape:window-maximized="1"
     inkscape:current-layer="Layer_5" />
  <defs
     id="defs1">
    <style
       id="style1">
      .cls-1 {
        fill: #231f20;
        stroke-miterlimit: 10;
      }

      .cls-1, .cls-2 {
        stroke: #231f20;
        stroke-width: 12px;
      }

      .cls-2 {
        fill: none;
        stroke-linecap: round;
        stroke-linejoin: round;
      }
    </style>
  </defs>
  <path
     class="cls-2"
     d="M 40.689967,40.68996 H 269.32996 c 0,0 28.57,16.18 48.89,13.58 31.33,-4.01 2.21,-42.24 -13.33,-30 -15.89,12.51 -17.86,47.21 35.56,75.56 54.44,28.89 127.66999,-35.32 98.88999,-59.14 -17.52,-14.51 -46.42999,-6.42 -32.22,34.69 17.47,50.56 155.56,37.7 151.11,-23.33 0,0 -15.56,-27.22 -38.89,-11.36 -31.02,21.09 8.89,70.67 78.89,67.92 50.35,-1.97 76.53,-49.56 71.11,-73.34 -6.67,-29.2799999 -46.85,-22.9 -37.28,5.42 11.73,34.69 46.73,6.42 55.06,0 8.33,-6.42 230.00001,0 230.00001,0"
     id="path1" />
  <circle
     class="cls-1"
     cx="40.689999"
     cy="40.689999"
     r="34.689999"
     id="circle1"
     transform="matrix(0,1,1,0,0,0)" />
  <circle
     class="cls-1"
     cx="40.689999"
     cy="917.09998"
     r="34.689999"
     id="circle2"
     transform="matrix(0,1,1,0,0,0)" />
</svg>
